# Blender v2.79 (sub 0) OBJ File: ''
# www.blender.org
mtllib circle.mtl
o Cylinder
v 0.000000 -0.049462 -2.156276
v 0.000000 0.049462 -2.156276
v 0.420669 -0.049462 -2.114843
v 0.420669 0.049462 -2.114843
v 0.825171 -0.049462 -1.992139
v 0.825171 0.049462 -1.992139
v 1.197963 -0.049462 -1.792878
v 1.197963 0.049462 -1.792878
v 1.524717 -0.049462 -1.524717
v 1.524717 0.049462 -1.524717
v 1.792878 -0.049462 -1.197963
v 1.792878 0.049462 -1.197963
v 1.992139 -0.049462 -0.825171
v 1.992139 0.049462 -0.825171
v 2.114843 -0.049462 -0.420669
v 2.114843 0.049462 -0.420669
v 2.156276 -0.049462 -0.000000
v 2.156276 0.049462 -0.000000
v 2.114844 -0.049462 0.420668
v 2.114844 0.049462 0.420668
v 1.992139 -0.049462 0.825171
v 1.992139 0.049462 0.825171
v 1.792878 -0.049462 1.197963
v 1.792878 0.049462 1.197963
v 1.524717 -0.049462 1.524717
v 1.524717 0.049462 1.524717
v 1.197963 -0.049462 1.792878
v 1.197963 0.049462 1.792878
v 0.825171 -0.049462 1.992139
v 0.825171 0.049462 1.992139
v 0.420668 -0.049462 2.114844
v 0.420668 0.049462 2.114844
v -0.000001 -0.049462 2.156276
v -0.000001 0.049462 2.156276
v -0.420669 -0.049462 2.114843
v -0.420669 0.049462 2.114843
v -0.825172 -0.049462 1.992139
v -0.825172 0.049462 1.992139
v -1.197964 -0.049462 1.792877
v -1.197964 0.049462 1.792877
v -1.524718 -0.049462 1.524716
v -1.524718 0.049462 1.524716
v -1.792879 -0.049462 1.197961
v -1.792879 0.049462 1.197961
v -1.992140 -0.049462 0.825169
v -1.992140 0.049462 0.825169
v -2.114844 -0.049462 0.420667
v -2.114844 0.049462 0.420667
v -2.156276 -0.049462 -0.000002
v -2.156276 0.049462 -0.000002
v -2.114843 -0.049462 -0.420671
v -2.114843 0.049462 -0.420671
v -1.992138 -0.049462 -0.825173
v -1.992138 0.049462 -0.825173
v -1.792876 -0.049462 -1.197965
v -1.792876 0.049462 -1.197965
v -1.524715 -0.049462 -1.524719
v -1.524715 0.049462 -1.524719
v -1.197960 -0.049462 -1.792879
v -1.197960 0.049462 -1.792879
v -0.825168 -0.049462 -1.992140
v -0.825168 0.049462 -1.992140
v -0.420665 -0.049462 -2.114844
v -0.420665 0.049462 -2.114844
v 0.000000 -0.049462 -2.156276
v 0.420669 -0.049462 -2.114843
v 0.420669 0.049462 -2.114843
v 0.000000 0.049462 -2.156276
v 0.825171 -0.049462 -1.992139
v 0.825171 0.049462 -1.992139
v 1.197963 -0.049462 -1.792878
v 1.197963 0.049462 -1.792878
v 1.524717 -0.049462 -1.524717
v 1.524717 0.049462 -1.524717
v 1.792878 -0.049462 -1.197963
v 1.792878 0.049462 -1.197963
v 1.992139 -0.049462 -0.825171
v 1.992139 0.049462 -0.825171
v 2.114843 -0.049462 -0.420669
v 2.114843 0.049462 -0.420669
v 2.156276 -0.049462 -0.000000
v 2.156276 0.049462 -0.000000
v 2.114844 -0.049462 0.420668
v 2.114844 0.049462 0.420668
v 1.992139 -0.049462 0.825171
v 1.992139 0.049462 0.825171
v 1.792878 -0.049462 1.197963
v 1.792878 0.049462 1.197963
v 1.524717 -0.049462 1.524717
v 1.524717 0.049462 1.524717
v 1.197963 -0.049462 1.792878
v 1.197963 0.049462 1.792878
v 0.825171 -0.049462 1.992139
v 0.825171 0.049462 1.992139
v 0.420668 -0.049462 2.114844
v 0.420668 0.049462 2.114844
v -0.000001 -0.049462 2.156276
v -0.000001 0.049462 2.156276
v -0.420669 -0.049462 2.114843
v -0.420669 0.049462 2.114843
v -0.825172 -0.049462 1.992139
v -0.825172 0.049462 1.992139
v -1.197964 -0.049462 1.792877
v -1.197964 0.049462 1.792877
v -1.524718 -0.049462 1.524716
v -1.524718 0.049462 1.524716
v -1.792879 -0.049462 1.197961
v -1.792879 0.049462 1.197961
v -1.992140 -0.049462 0.825169
v -1.992140 0.049462 0.825169
v -2.114844 -0.049462 0.420667
v -2.114844 0.049462 0.420667
v -2.156276 -0.049462 -0.000002
v -2.156276 0.049462 -0.000002
v -2.114843 -0.049462 -0.420671
v -2.114843 0.049462 -0.420671
v -1.992138 -0.049462 -0.825173
v -1.992138 0.049462 -0.825173
v -1.792876 -0.049462 -1.197965
v -1.792876 0.049462 -1.197965
v -1.524715 -0.049462 -1.524719
v -1.524715 0.049462 -1.524719
v -1.197960 -0.049462 -1.792879
v -1.197960 0.049462 -1.792879
v -0.825168 -0.049462 -1.992140
v -0.825168 0.049462 -1.992140
v -0.420665 -0.049462 -2.114844
v -0.420665 0.049462 -2.114844
vt 0.482537 0.712781
vt 0.482537 0.712781
vt 0.527630 0.708340
vt 0.527630 0.708340
vt 0.570990 0.695187
vt 0.570990 0.695187
vt 0.610951 0.673827
vt 0.610951 0.673827
vt 0.645977 0.645082
vt 0.645977 0.645082
vt 0.674722 0.610056
vt 0.674722 0.610056
vt 0.696082 0.570095
vt 0.696082 0.570095
vt 0.709235 0.526735
vt 0.709235 0.526735
vt 0.713676 0.481642
vt 0.713676 0.481642
vt 0.709235 0.436549
vt 0.709235 0.436549
vt 0.696082 0.393189
vt 0.696082 0.393189
vt 0.674722 0.353228
vt 0.674722 0.353228
vt 0.645977 0.318202
vt 0.645977 0.318202
vt 0.610951 0.289457
vt 0.610951 0.289457
vt 0.570990 0.268097
vt 0.570990 0.268097
vt 0.527630 0.254944
vt 0.527630 0.254944
vt 0.482537 0.250503
vt 0.482537 0.250503
vt 0.437444 0.254944
vt 0.437444 0.254944
vt 0.394084 0.268097
vt 0.394084 0.268097
vt 0.354123 0.289457
vt 0.354123 0.289457
vt 0.319097 0.318202
vt 0.319097 0.318202
vt 0.290352 0.353228
vt 0.290352 0.353228
vt 0.268992 0.393189
vt 0.268992 0.393189
vt 0.255839 0.436549
vt 0.255839 0.436549
vt 0.251398 0.481642
vt 0.251398 0.481642
vt 0.255839 0.526735
vt 0.255839 0.526735
vt 0.268993 0.570095
vt 0.268993 0.570095
vt 0.290352 0.610056
vt 0.290352 0.610056
vt 0.319097 0.645082
vt 0.319097 0.645082
vt 0.354123 0.673827
vt 0.354123 0.673827
vt 0.394084 0.695187
vt 0.394084 0.695187
vt 0.527630 0.708340
vt 0.482537 0.712781
vt 0.437445 0.708340
vt 0.394084 0.695187
vt 0.354123 0.673827
vt 0.319097 0.645082
vt 0.290352 0.610056
vt 0.268993 0.570095
vt 0.255839 0.526735
vt 0.251398 0.481642
vt 0.255839 0.436549
vt 0.268992 0.393189
vt 0.290352 0.353228
vt 0.319097 0.318202
vt 0.354123 0.289457
vt 0.394084 0.268097
vt 0.437444 0.254944
vt 0.482537 0.250503
vt 0.527630 0.254944
vt 0.570990 0.268097
vt 0.610951 0.289457
vt 0.645977 0.318202
vt 0.674722 0.353228
vt 0.696082 0.393189
vt 0.709235 0.436549
vt 0.713676 0.481642
vt 0.709235 0.526735
vt 0.696082 0.570095
vt 0.674722 0.610056
vt 0.645977 0.645082
vt 0.610951 0.673827
vt 0.570990 0.695187
vt 0.437445 0.708340
vt 0.437445 0.708340
vt 0.482537 0.712781
vt 0.527630 0.708340
vt 0.570990 0.695187
vt 0.610951 0.673827
vt 0.645977 0.645082
vt 0.674722 0.610056
vt 0.696082 0.570095
vt 0.709235 0.526735
vt 0.713676 0.481642
vt 0.709235 0.436549
vt 0.696082 0.393189
vt 0.674722 0.353228
vt 0.645977 0.318202
vt 0.610951 0.289457
vt 0.570990 0.268097
vt 0.527630 0.254944
vt 0.482537 0.250503
vt 0.437444 0.254944
vt 0.394084 0.268097
vt 0.354123 0.289457
vt 0.319097 0.318202
vt 0.290352 0.353228
vt 0.268992 0.393189
vt 0.255839 0.436549
vt 0.251398 0.481642
vt 0.255839 0.526735
vt 0.268993 0.570095
vt 0.290352 0.610056
vt 0.319097 0.645082
vt 0.354123 0.673827
vt 0.394084 0.695187
vt 0.437445 0.708340
vn 0.0000 0.0000 -1.0000
vn 0.1951 0.0000 -0.9808
vn 0.3827 0.0000 -0.9239
vn 0.5556 0.0000 -0.8314
vn 0.7071 0.0000 -0.7071
vn 0.8314 0.0000 -0.5556
vn 0.9239 0.0000 -0.3827
vn 0.9808 0.0000 -0.1951
vn 1.0000 0.0000 0.0000
vn 0.9808 0.0000 0.1951
vn 0.9239 0.0000 0.3827
vn 0.8314 0.0000 0.5556
vn 0.7071 0.0000 0.7071
vn 0.5556 0.0000 0.8314
vn 0.3827 0.0000 0.9239
vn 0.1951 0.0000 0.9808
vn 0.0000 0.0000 1.0000
vn -0.1951 0.0000 0.9808
vn -0.3827 0.0000 0.9239
vn -0.5556 0.0000 0.8314
vn -0.7071 0.0000 0.7071
vn -0.8314 0.0000 0.5556
vn -0.9239 0.0000 0.3827
vn -0.9808 0.0000 0.1951
vn -1.0000 0.0000 0.0000
vn -0.9808 0.0000 -0.1951
vn -0.9239 0.0000 -0.3827
vn -0.8314 0.0000 -0.5556
vn -0.7071 0.0000 -0.7071
vn -0.5556 0.0000 -0.8314
vn -0.3827 0.0000 -0.9239
vn 0.0000 1.0000 0.0000
vn -0.1951 0.0000 -0.9808
vn 0.0000 -1.0000 0.0000
usemtl Material.003
s 1
f 65/1/1 68/2/1 67/3/2 66/4/2
f 66/4/2 67/3/2 70/5/3 69/6/3
f 69/6/3 70/5/3 72/7/4 71/8/4
f 71/8/4 72/7/4 74/9/5 73/10/5
f 73/10/5 74/9/5 76/11/6 75/12/6
f 75/12/6 76/11/6 78/13/7 77/14/7
f 77/14/7 78/13/7 80/15/8 79/16/8
f 79/16/8 80/15/8 82/17/9 81/18/9
f 81/18/9 82/17/9 84/19/10 83/20/10
f 83/20/10 84/19/10 86/21/11 85/22/11
f 85/22/11 86/21/11 88/23/12 87/24/12
f 87/24/12 88/23/12 90/25/13 89/26/13
f 89/26/13 90/25/13 92/27/14 91/28/14
f 91/28/14 92/27/14 94/29/15 93/30/15
f 93/30/15 94/29/15 96/31/16 95/32/16
f 95/32/16 96/31/16 98/33/17 97/34/17
f 97/34/17 98/33/17 100/35/18 99/36/18
f 99/36/18 100/35/18 102/37/19 101/38/19
f 101/38/19 102/37/19 104/39/20 103/40/20
f 103/40/20 104/39/20 106/41/21 105/42/21
f 105/42/21 106/41/21 108/43/22 107/44/22
f 107/44/22 108/43/22 110/45/23 109/46/23
f 109/46/23 110/45/23 112/47/24 111/48/24
f 111/48/24 112/47/24 114/49/25 113/50/25
f 113/50/25 114/49/25 116/51/26 115/52/26
f 115/52/26 116/51/26 118/53/27 117/54/27
f 117/54/27 118/53/27 120/55/28 119/56/28
f 119/56/28 120/55/28 122/57/29 121/58/29
f 121/58/29 122/57/29 124/59/30 123/60/30
f 123/60/30 124/59/30 126/61/31 125/62/31
f 4/63/32 2/64/32 128/65/32 62/66/32 60/67/32 58/68/32 56/69/32 54/70/32 52/71/32 50/72/32 48/73/32 46/74/32 44/75/32 42/76/32 40/77/32 38/78/32 36/79/32 34/80/32 32/81/32 30/82/32 28/83/32 26/84/32 24/85/32 22/86/32 20/87/32 18/88/32 16/89/32 14/90/32 12/91/32 10/92/32 8/93/32 6/94/32
f 125/62/31 126/61/31 64/95/33 127/96/33
f 127/96/33 64/95/33 68/2/1 65/1/1
f 1/97/34 3/98/34 5/99/34 7/100/34 9/101/34 11/102/34 13/103/34 15/104/34 17/105/34 19/106/34 21/107/34 23/108/34 25/109/34 27/110/34 29/111/34 31/112/34 33/113/34 35/114/34 37/115/34 39/116/34 41/117/34 43/118/34 45/119/34 47/120/34 49/121/34 51/122/34 53/123/34 55/124/34 57/125/34 59/126/34 61/127/34 63/128/34
